<svg width="1200" height="420" viewBox="0 0 1200 420" fill="none" xmlns="http://www.w3.org/2000/svg" role="img" aria-labelledby="title desc">
  <title id="title">GEAC logo</title>
  <desc id="desc">A logo for GEAC combining an atlas ring, cohort nodes, and a genomic signal mark.</desc>
  <defs>
    <linearGradient id="bg" x1="40" y1="30" x2="380" y2="390" gradientUnits="userSpaceOnUse">
      <stop stop-color="#0E3A52"/>
      <stop offset="1" stop-color="#0A6A6A"/>
    </linearGradient>
    <linearGradient id="accent" x1="90" y1="120" x2="330" y2="300" gradientUnits="userSpaceOnUse">
      <stop stop-color="#F4C95D"/>
      <stop offset="1" stop-color="#F08A4B"/>
    </linearGradient>
    <linearGradient id="signal" x1="120" y1="130" x2="290" y2="275" gradientUnits="userSpaceOnUse">
      <stop stop-color="#F7F4EA"/>
      <stop offset="1" stop-color="#DCEFE8"/>
    </linearGradient>
    <filter id="shadow" x="16" y="16" width="388" height="388" filterUnits="userSpaceOnUse" color-interpolation-filters="sRGB">
      <feFlood flood-opacity="0" result="BackgroundImageFix"/>
      <feColorMatrix in="SourceAlpha" type="matrix" values="0 0 0 0 0 0 0 0 0 0 0 0 0 0 0 0 0 0 127 0" result="hardAlpha"/>
      <feOffset dy="10"/>
      <feGaussianBlur stdDeviation="12"/>
      <feComposite in2="hardAlpha" operator="out"/>
      <feColorMatrix type="matrix" values="0 0 0 0 0.027451 0 0 0 0 0.141176 0 0 0 0 0.180392 0 0 0 0.2 0"/>
      <feBlend mode="normal" in2="BackgroundImageFix" result="effect1_dropShadow_1_1"/>
      <feBlend mode="normal" in="SourceGraphic" in2="effect1_dropShadow_1_1" result="shape"/>
    </filter>
  </defs>

  <g filter="url(#shadow)">
    <rect x="40" y="30" width="340" height="340" rx="78" fill="url(#bg)"/>
  </g>

  <circle cx="210" cy="200" r="108" stroke="rgba(247,244,234,0.18)" stroke-width="26"/>
  <circle cx="210" cy="200" r="73" stroke="rgba(247,244,234,0.10)" stroke-width="1.5" stroke-dasharray="4 8"/>

  <path d="M104 205C132 181 158 169 181 169C202 169 217 180 232 193C247 206 263 217 285 217C305 217 326 208 348 188" stroke="url(#signal)" stroke-width="18" stroke-linecap="round"/>
  <path d="M111 252C139 228 165 216 188 216C209 216 224 227 239 240C254 253 270 264 292 264C312 264 333 255 355 235" stroke="url(#accent)" stroke-width="12" stroke-linecap="round" opacity="0.95"/>

  <circle cx="111" cy="252" r="12" fill="#F4C95D"/>
  <circle cx="188" cy="216" r="10" fill="#F7F4EA"/>
  <circle cx="239" cy="240" r="10" fill="#F08A4B"/>
  <circle cx="292" cy="264" r="10" fill="#F7F4EA"/>
  <circle cx="355" cy="235" r="12" fill="#F4C95D"/>

  <circle cx="131" cy="120" r="11" fill="#F7F4EA"/>
  <circle cx="290" cy="104" r="9" fill="#DCEFE8"/>
  <circle cx="323" cy="302" r="11" fill="#F7F4EA"/>
  <circle cx="117" cy="300" r="9" fill="#DCEFE8"/>
  <path d="M131 120L169 151" stroke="rgba(247,244,234,0.28)" stroke-width="3" stroke-linecap="round"/>
  <path d="M290 104L261 147" stroke="rgba(247,244,234,0.28)" stroke-width="3" stroke-linecap="round"/>
  <path d="M323 302L278 276" stroke="rgba(247,244,234,0.28)" stroke-width="3" stroke-linecap="round"/>
  <path d="M117 300L155 262" stroke="rgba(247,244,234,0.28)" stroke-width="3" stroke-linecap="round"/>

  <g opacity="0.9">
    <path d="M210 112V138" stroke="rgba(247,244,234,0.26)" stroke-width="2" stroke-linecap="round"/>
    <path d="M210 262V288" stroke="rgba(247,244,234,0.26)" stroke-width="2" stroke-linecap="round"/>
    <path d="M122 200H148" stroke="rgba(247,244,234,0.26)" stroke-width="2" stroke-linecap="round"/>
    <path d="M272 200H298" stroke="rgba(247,244,234,0.26)" stroke-width="2" stroke-linecap="round"/>
  </g>

  <g fill="#0E3A52">
    <rect x="432" y="71" width="720" height="278" rx="38" fill="#F7F4EA"/>
  </g>

  <text x="475" y="190" fill="#0E3A52" font-family="Avenir Next, Helvetica Neue, Arial, sans-serif" font-size="130" font-weight="800" letter-spacing="7">GEAC</text>
  <text x="479" y="246" fill="#2E6671" font-family="Avenir Next, Helvetica Neue, Arial, sans-serif" font-size="30" font-weight="600" letter-spacing="3.6">GENOMIC EVIDENCE ATLAS OF COHORTS</text>
  <path d="M481 279H1113" stroke="#D9E8E3" stroke-width="4" stroke-linecap="round"/>
  <text x="479" y="319" fill="#4E6B6B" font-family="Avenir Next, Helvetica Neue, Arial, sans-serif" font-size="26" font-weight="500" letter-spacing="1.4">Cohort-scale sequencing evidence, mapped clearly.</text>
</svg>
